<?xml version="1.0" encoding="UTF-8" standalone="no"?>
<svg
   xmlns:dc="http://purl.org/dc/elements/1.1/"
   xmlns:cc="http://creativecommons.org/ns#"
   xmlns:rdf="http://www.w3.org/1999/02/22-rdf-syntax-ns#"
   xmlns:svg="http://www.w3.org/2000/svg"
   xmlns="http://www.w3.org/2000/svg"
   style="fill-rule:evenodd"
   id="svg78"
   version="1.1"
   viewBox="0 0 80.866898 26.535772"
   height="26.535772pt"
   width="80.866898pt">
  <metadata
     id="metadata84">
    <rdf:RDF>
      <cc:Work
         rdf:about="">
        <dc:format>image/svg+xml</dc:format>
        <dc:type
           rdf:resource="http://purl.org/dc/dcmitype/StillImage" />
        <dc:title></dc:title>
      </cc:Work>
    </rdf:RDF>
  </metadata>
  <defs
     id="defs82" />
  <g
     transform="translate(0,-815.35422)"
     style="display:none"
     id="layer1">
    <g
       id="g76">
      <path
         id="path2"
         d="m 513.879,346.819 c -1.025,-1.667 -2.564,-2.949 -3.076,-5 -0.514,-2.052 -2.18,-8.334 -10.77,-5.77 -6.283,-0.641 -7.693,-0.256 -7.949,0.513 0,0.513 0.127,0.77 0.896,1.026 0.77,0.256 6.026,2.436 6.413,3.206 0.382,0.769 1.792,2.051 -0.129,5.127 -1.924,3.078 -7.053,19.617 -3.719,33.72 3.334,14.104 5.514,16.027 5.514,16.027 0,0 1.537,4.615 0.769,5.642 -0.769,1.025 -3.975,0.256 -5.129,2.307 1.281,0 0.256,1.282 0.256,1.667 1.025,0 2.693,-0.129 2.693,-0.129 l -0.384,0.769 c 0,0 2.691,-0.64 4.486,-0.769 1.795,-0.128 2.82,0.513 3.078,-0.512 0.256,-1.026 -0.385,-1.924 -0.129,-3.333 0.258,-1.411 0.385,-3.847 0.385,-3.847 0,0 2.564,0 2.949,0.641 0.385,0.641 0.641,6.153 0.127,6.795 -0.512,0.641 -4.871,0 -6.41,2.308 1.668,0.384 2.565,0.128 2.565,0.128 l -1.026,1.923 4.488,-0.77 -0.129,1.411 c 0,0 3.077,-1.666 3.975,-2.18 0.896,-0.512 2.436,-4.871 2.436,-5.769 0,-0.898 1.41,2.18 4.615,2.436 3.207,0.257 4.488,-0.641 3.078,-2.051 -1.41,-1.411 -4.104,-3.718 -3.463,-6.411 0.643,-2.692 2.342,-11.663 2.565,-23.462 0.257,-13.591 -8.975,-25.643 -8.975,-25.643 z"
         style="fill:#242b25;stroke:none" />
      <path
         id="path4"
         d="m 441.969,346.514 c -0.33,0.109 -0.928,1.276 -0.58,4.176 0.347,2.9 2.435,10.442 3.828,11.95 1.392,1.509 6.613,9.513 8.123,15.198 1.508,5.686 0.348,6.729 -0.233,5.686 -0.58,-1.044 -4.292,-9.862 -7.31,-11.719 0,0 2.553,12.762 0.232,19.608 -0.695,3.829 -1.275,5.453 -1.623,6.265 -0.349,0.812 -0.812,4.525 -0.812,5.105 0,0.579 0.812,4.177 1.275,5.105 0.465,0.928 0.813,2.088 0.348,1.971 -0.463,-0.116 -2.203,-1.971 -2.783,-1.855 -0.581,0.116 -2.553,2.204 -2.786,1.855 -0.232,-0.348 0.116,-3.48 -0.347,-3.711 -0.465,-0.233 -3.713,1.044 -2.901,0.231 0.813,-0.812 3.133,-3.249 3.364,-4.176 0.232,-0.928 0.58,-0.58 0.117,-2.089 -0.465,-1.508 -1.74,-3.248 -3.133,-3.364 -1.393,-0.116 -4.06,0.116 -4.525,-0.116 -0.463,-0.233 -0.463,2.668 -0.463,3.364 0,0.697 -1.508,3.597 -2.205,3.829 -0.696,0.232 -0.465,-1.392 -0.465,-1.392 0,0 -3.016,2.784 -3.479,2.204 -0.464,-0.58 0.348,-2.9 0.348,-2.9 0,0 -2.437,0.579 -2.32,0.116 0.115,-0.464 3.48,-2.437 4.291,-2.901 0.812,-0.464 -0.58,-3.248 -1.16,-4.524 -0.58,-1.277 -2.668,-3.249 -2.551,-5.918 0,0 -2.67,-8.585 -1.278,-14.27 0,0 -3.828,3.133 -4.525,5.453 -0.695,2.321 -0.811,4.757 -1.971,3.713 -1.16,-1.045 -1.51,-9.05 0.928,-12.415 2.436,-3.364 6.498,-8.933 6.498,-8.933 0,0 3.92,-9.721 5.219,-12.646 1.392,-3.132 3.482,-7.889 3.482,-9.281 0,-1.393 2.668,-7.89 8.004,-6.962 5.338,0.928 6.846,5.221 6.846,5.221 0,0 3.48,1.044 4.06,3.133 -0.115,0.696 -1.457,0.075 -2.32,-0.116 -1.045,-0.232 -2.203,0 -2.203,0 0,0 -3.25,4.525 -4.99,5.105 z"
         style="fill:#242b25;stroke:none" />
      <path
         id="path6"
         d="m 509.648,427.104 c -4.269,-0.201 -9.015,3.808 -9.328,10.493 -0.156,3.263 -0.308,3.419 -0.543,3.886 -0.234,0.465 -4.275,6.839 -5.674,9.017 -1.4,2.174 -5.908,9.869 -6.296,14.845 -0.389,4.972 -0.465,7.149 0.623,7.073 1.088,-0.08 1.787,-2.178 1.787,-2.178 0,0 1.166,10.494 3.886,12.827 1.477,2.951 2.641,4.195 4.741,3.728 0.466,0.389 1.168,2.877 1.943,2.645 0.778,-0.235 0.856,-0.469 1.322,-0.389 0.465,0.076 1.709,0.932 2.254,0.697 0.543,-0.232 1.399,-0.543 1.631,-0.467 0.234,0.08 0.934,0.621 1.555,0.391 0.623,-0.232 1.4,-0.545 1.633,-0.545 0.232,0 1.633,1.088 2.486,0.856 0.855,-0.235 1.555,-0.235 1.943,-0.157 0.389,0.076 0.389,0.389 1.088,0.157 0.701,-0.235 1.244,-0.932 1.633,-0.856 0.389,0.078 0.856,0.775 1.399,0.234 0.544,-0.544 0.621,-1.478 0.621,-1.478 0,0 3.419,-0.856 4.275,-4.354 2.332,-3.34 5.053,-8.004 4.898,-10.802 0.698,2.1 1.243,1.944 2.022,1.477 0.775,-0.467 1.088,-7.305 0.076,-11.503 -1.012,-4.197 -4.975,-10.881 -5.363,-11.735 -0.389,-0.855 -1.84,-4.099 -2.322,-5.095 -0.52,-1.076 -2.963,-4.699 -2.885,-5.011 0.078,-0.311 0.543,-13.291 -9.405,-13.756 z"
         style="fill:#242b25;stroke:none" />
      <path
         id="path8"
         d="m 260.278,337.146 c -2.652,0.113 -7.255,1.592 -7.609,7.254 -1.062,4.071 -2.123,5.309 -3.008,6.725 -0.885,1.415 -9.378,16.279 -9.201,30.788 0.177,14.51 -1.239,20.527 -4.954,23.003 -3.717,2.477 2.3,0.708 4.246,0 1.947,-0.707 5.485,-2.831 5.485,-1.769 0,1.062 -0.885,3.008 0.708,3.184 1.593,0.178 3.716,0 3.716,0 0,0 0.708,3.009 3.008,3.009 2.301,0 7.786,0.707 8.848,0.531 1.061,-0.178 1.061,-0.178 1.061,-0.178 l -0.53,-1.415 1.415,-0.354 c 0,0 -2.123,-0.531 -3.185,-0.708 0,0 0.412,-0.353 0.119,-0.413 -0.296,-0.058 -2.361,-0.294 -2.714,-0.353 -0.355,-0.059 0.825,-0.59 1.061,-0.766 0.236,-0.178 -0.353,-0.532 -0.766,-0.591 -0.413,-0.059 1.061,-0.471 0.589,-0.648 -0.471,-0.177 -1.592,-0.295 -1.592,-0.295 0,0 0.118,-0.414 -0.354,-0.414 -0.473,0 -1.061,-0.294 -1.061,-0.294 0,0 0.471,-1.239 1.002,-1.651 0.531,-0.413 4.365,-4.955 5.249,-5.958 0.885,-1.003 6.547,-9.968 7.55,-20.703 1.002,-10.734 -1.179,-19.817 -2.537,-22.885 -1.355,-3.067 -3.361,-4.069 -3.183,-5.072 0.176,-1.003 1.945,-3.008 2.181,-4.011 1.357,-0.944 4.542,-3.008 7.314,-3.362 2.772,-0.354 4.424,0.295 4.305,-0.295 -0.117,-0.589 -1.824,-0.83 -3.244,-0.884 -1.533,-0.06 -6.428,0.59 -7.195,0.235 -0.767,-0.353 -2.596,-1.887 -6.724,-1.71 z"
         style="fill:#242b25;stroke:none" />
      <path
         id="path10"
         d="m 331.652,395.909 c 1.272,-0.097 2.739,-8.017 4.596,-9.485 0,0 0.49,10.268 1.369,11.931 0.879,1.662 -1.174,5.377 -2.543,6.356 -1.369,0.978 0.783,0.684 1.567,0.195 0.779,-0.489 2.248,-1.369 2.248,-1.369 0,0 -0.098,3.815 0.685,4.596 0.781,0.783 3.52,1.858 3.813,1.76 0.293,-0.098 0.781,-0.782 0.781,-0.782 0,0 3.522,0.782 3.814,0.392 0.293,-0.392 0,-0.783 0,-0.783 0.684,0 1.467,-0.098 1.467,-0.098 0,0 0,-0.684 0.684,-0.684 0.685,0 3.424,1.075 4.302,0.978 0.881,-0.099 0,-0.783 0.393,-0.783 0.391,0 2.055,-0.097 1.857,-0.488 -0.195,-0.392 -5.085,-2.055 -5.279,-2.445 -0.197,-0.392 -0.687,-2.542 -0.295,-4.01 0.391,-1.467 1.955,-1.857 2.248,-3.813 0.293,-1.956 5.28,-7.225 5.475,-12.896 0,0 1.369,2.542 2.15,5.671 0.782,3.129 1.076,4.205 2.153,4.106 1.074,-0.097 3.029,-7.04 0.586,-15.058 -2.444,-8.019 -4.596,-9.485 -4.596,-9.485 0,0 -0.449,-5.695 -4.047,-11.39 -2.76,-4.369 -1.326,-7.005 -1.326,-7.005 0.291,-1.369 2.148,-3.13 2.248,-6.454 0.098,-3.325 -1.857,-6.063 -5.965,-6.063 -4.107,0 -5.674,3.129 -5.674,3.129 0,0 -4.593,-1.075 -7.822,0.489 -0.391,0.196 -0.098,0.587 0.59,0.489 0.681,-0.098 6.256,0.489 6.746,0.783 0.486,0.292 1.955,2.15 2.836,3.519 0.881,1.37 -1.535,4.375 -2.871,6.467 -1.203,1.878 -7.344,11.54 -8.865,20.914 -0.924,5.708 -4.596,21.415 -3.325,21.316 z m 10.658,7.139 c 0.196,-0.685 0.979,-1.564 1.665,-1.955 0.681,-0.393 3.517,-1.174 3.517,-1.174 0.49,0.391 -0.291,1.565 -0.586,2.835 -0.293,1.272 -1.074,4.009 -1.074,4.009 0,0 -3.229,-1.563 -3.422,-1.955 -0.197,-0.391 -0.293,-1.076 -0.1,-1.76 z"
         style="fill:#242b25;stroke:none" />
      <path
         id="path12"
         d="m 163.72,335.735 c -4.086,-0.523 -5.782,1.029 -7.838,2.827 -2.057,1.8 -5.655,0 -7.326,1.158 -1.67,1.157 -0.257,1.541 1.671,1.927 1.927,0.385 4.627,1.799 5.14,2.442 0.515,0.643 2.185,2.055 1.284,3.469 -0.899,1.414 -4.882,9.38 -4.753,23.646 0.128,14.263 6.167,24.801 7.454,25.571 l -2.719,-0.05 c 0,0 -0.456,0.142 0.382,0.477 0.114,0.047 -2.071,0.367 -2.161,0.73 -0.129,0.514 2.312,0.901 2.312,0.901 0,0 -1.541,0.385 -1.284,0.77 0.257,0.385 4.498,0 5.139,0.129 0.643,0.128 1.286,0.515 1.672,0.515 0.385,0 1.284,-0.259 1.799,-0.259 0.515,0 2.055,1.287 2.442,1.8 0.383,0.513 0.127,1.927 0.127,1.927 0,0 -2.587,0.723 -3.229,0.853 -0.643,0.127 -4.867,0.048 -4.225,0.433 0.644,0.385 1.543,0.642 1.543,0.642 0,0 -2.827,0.772 -2.827,1.414 0,0.641 2.956,0.128 2.956,0.641 0,0.515 -1.414,1.415 -0.772,2.056 0.643,0.643 3.983,-1.027 5.911,-1.67 1.929,-0.642 3.599,-1.669 3.728,-2.312 0.128,-0.643 0.384,-2.827 0.513,-3.212 0.129,-0.387 1.414,-1.543 1.414,-1.543 0,0 2.698,-1.542 8.224,-1.414 5.527,0.129 7.84,-1.029 4.498,-2.312 -3.342,-1.286 -5.268,-2.7 -5.268,-3.598 0,-0.9 2.185,-11.822 0.77,-15.421 0,0 7.455,10.024 8.61,13.365 1.155,3.341 1.671,0.384 0.386,-4.369 -1.285,-4.756 -4.369,-12.723 -7.453,-15.551 0,0 -1.413,-12.079 -4.369,-16.963 -2.955,-4.884 -3.727,-6.167 -3.727,-6.167 0,0 0,-11.565 -10.024,-12.852 z"
         style="fill:#242b25;stroke:none" />
      <path
         id="path14"
         d="m 91.7729,338.784 c 0.1602,-0.481 4.4922,-4.971 5.9351,-5.453 1.4434,-0.482 0.481,-1.123 -1.123,-0.803 -1.604,0.321 -4.8121,2.727 -6.0943,3.208 -1.2846,0.482 -6.0166,-1.282 -8.4214,1.124 -2.4062,2.406 -2.748,5.513 -1.144,8.722 1.605,3.207 0.7602,5.276 0.0605,6.316 -0.8217,1.221 -5.0922,9.824 -4.9306,16.561 0,0 -5.6148,3.047 -8.1826,12.029 -2.1929,7.685 4.1709,-1.764 8.021,-3.528 0,0 -2.086,8.982 0.9628,16.039 3.0464,7.059 -4.1709,7.86 -4.1709,8.983 0,1.122 3.8501,1.283 7.8599,-0.321 0,0 0,2.567 0.8023,2.728 0.8017,0.16 0.3208,2.245 0.6411,2.887 0.3208,0.641 6.0942,2.244 6.8969,2.565 0.8013,0.321 0.482,-0.801 0.482,-0.801 0,0 4.2627,0.399 4.1694,-0.161 -0.0806,-0.481 -1.9243,-1.042 -1.9243,-1.042 0,0 0.9604,-0.561 0.1601,-0.882 -0.8012,-0.321 -0.8012,-0.321 -0.8012,-0.321 0,0 2.4053,0.321 3.0464,0.161 0.6421,-0.161 0.1611,-1.284 0.1611,-1.284 0,0 3.2632,0.27 2.9673,-0.321 -0.1607,-0.321 -1.4429,-0.882 -1.4429,-0.882 0,0 1.2027,-0.883 0.4004,-0.883 0,0 -6.937,-0.762 -7.2373,-0.942 -0.3027,-0.181 -1.0234,-2.346 -1.084,-3.068 -0.0596,-0.721 -0.0596,-1.623 0.4214,-1.864 0.4819,-0.24 1.2642,-1.083 1.4438,-2.346 0.1802,-1.263 6.5557,-4.572 7.8199,-17.082 1.2622,-12.512 -1.1431,-20.331 -3.8501,-24.962 -2.7066,-4.632 -3.249,-6.136 -3.6685,-7.219 -0.4214,-1.083 -0.5425,-2.768 0.48,-4.331 0.7969,-1.218 1.3437,-2.827 1.3437,-2.827 z"
         style="fill:#242b25;stroke:none" />
      <path
         id="path16"
         d="m 66.2891,432.685 c 1.1621,-1.057 5.8086,-2.851 6.3359,-3.168 0.5273,-0.318 0.6328,-3.802 6.123,-4.858 5.4922,-1.055 8.5528,2.218 9.1875,2.745 0,0 2.4278,1.268 6.4415,2.217 4.0117,0.951 10.875,3.696 16.367,15.311 3.018,6.386 3.133,13.951 2.641,19.678 0.062,1.333 0.146,2.437 0.314,3.13 0.74,3.062 3.485,3.908 1.901,4.436 -1.162,0.388 -2.18,-0.093 -3.057,-1.102 -0.199,1.212 -0.342,2.014 -0.322,2.263 0.105,1.268 1.373,7.603 1.689,8.659 0.317,1.055 2.852,1.899 2.535,2.428 -0.316,0.527 -1.689,0.422 -2.535,0 -0.105,1.16 -0.949,4.539 -2.217,5.066 -1.267,0.53 -3.8,1.27 -4.857,1.584 -1.055,0.319 -1.268,1.268 -1.69,1.268 -0.421,0 0.317,-1.795 0.317,-1.795 0,0 -1.901,0.846 -2.533,1.057 -0.635,0.211 0.843,-2.534 1.689,-2.957 0.422,-0.952 2.85,-1.266 3.695,-1.479 0.844,-0.209 0.952,-1.898 0.53,-2.744 -1.586,0.105 -5.176,-0.738 -6.442,-1.162 -1.267,-0.422 -3.3805,-1.057 -3.1676,-1.479 -0.4239,1.057 -1.9004,1.692 -1.9004,1.692 l -1.1621,2.427 c 0,0 0,0.739 -0.5274,1.479 -0.5293,0.738 -3.5898,1.582 -4.4355,1.582 -0.8457,0 -1.584,0.951 -2.5352,1.479 -0.9492,0.529 -0.4218,-0.422 0.1055,-1.372 -0.3164,-0.316 -2.6387,0.633 -3.2734,0.95 -0.6329,0.316 0.3183,-1.901 1.2675,-2.852 0.7403,-1.478 3.3789,-1.689 3.9082,-1.689 0.5274,0 0.7383,-0.422 1.0547,-0.739 0.3184,-0.316 0.6328,-1.478 0.7403,-2.322 0.1054,-0.846 -0.6348,-2.746 -1.1621,-4.33 -9.504,-21.75 -11.2989,-37.801 -11.2989,-38.646 0,-0.844 -0.7383,-2.639 -2.3222,-4.012 -1.584,-1.373 -4.9629,-2.006 -4.9629,-2.006 0,0 -3.5196,0.492 -4.7871,0.703 -1.2676,0.212 -2.0684,1.135 -2.8164,0.986 -0.7032,-0.142 0,-1.373 1.1621,-2.428 z"
         style="fill:#242b25;stroke:none" />
      <path
         id="path18"
         d="m 411.535,463.035 c 0.254,-5.388 2.647,-10.177 4.03,-12.524 -0.303,-9.995 3.511,-15.031 4.663,-17.124 1.309,-2.381 2.143,-3.81 1.547,-5.358 -0.593,-1.548 -0.119,-3.81 0,-4.643 0.12,-0.833 -0.951,-2.978 -1.666,-4.406 -0.714,-1.429 -3.095,-3.215 -3.81,-3.691 -0.715,-0.477 0.596,-0.596 2.619,0.238 2.025,0.832 4.406,4.525 5.598,4.406 1.189,-0.12 5.33,0.257 7.023,2.62 3.93,5.476 0.119,9.404 -0.119,11.191 -0.238,1.786 0.238,2.143 1.191,4.166 0.954,2.026 5.715,6.194 8.811,8.098 3.096,1.904 8.334,6.192 12.621,11.31 4.287,5.122 6.549,14.17 5.953,15.481 -0.596,1.309 -0.832,-0.596 -2.619,-3.93 -1.785,-3.334 -5.596,-6.787 -8.455,-9.407 -2.856,-2.618 -5.951,-3.333 -5.951,-3.333 0,0 0.355,1.785 2.381,5.238 2.023,3.453 2.261,13.574 2.261,13.574 1.309,3.691 -1.191,5.952 -1.547,6.309 -0.357,0.359 -0.595,0.834 -0.476,1.192 0.119,0.357 0.476,1.191 0.595,2.023 0.12,0.834 0.713,2.74 0.594,3.336 -0.117,0.594 -1.547,-1.192 -1.904,-1.311 -0.357,-0.119 -0.596,2.262 -1.428,2.026 -0.834,-0.241 -0.24,-1.787 -0.595,-2.264 -0.358,-0.477 -0.715,0.357 -1.192,0.477 -0.476,0.119 0.834,-3.454 1.192,-4.049 0.355,-0.596 0.238,-2.38 -0.12,-2.263 -0.357,0.121 -5.955,2.263 -7.74,1.907 -1.785,-0.359 -3.095,-0.359 -3.095,-0.359 0,1.43 -1.547,2.025 -1.547,2.025 0,0 0.832,3.334 0.951,3.928 0.119,0.598 0.238,1.787 -1.19,2.621 -1.429,0.832 -3.214,3.453 -3.81,3.453 -0.596,0 -0.119,-1.31 -0.119,-1.787 0,-0.474 -4.407,2.026 -4.883,1.666 -0.475,-0.355 0.953,-2.26 0.953,-2.26 0,0 -1.547,0.12 -1.904,-0.357 -0.358,-0.477 5.595,-3.215 6.072,-4.049 0.477,-0.834 -0.238,-2.978 -0.238,-2.978 -1.43,-0.832 -1.666,-5.832 -2.143,-6.548 -0.371,-0.557 -3.992,-6.169 -6.42,-14.757 -0.861,1.056 -1.898,2.459 -2.392,3.447 -0.834,1.666 0.595,5.596 -0.12,6.073 -0.714,0.474 -3.927,-1.787 -3.572,-9.407 z"
         style="fill:#242b25;stroke:none" />
      <path
         id="path20"
         d="m 307.299,427.508 c 0.818,-0.453 5.998,1.065 5.998,1.065 0,0 3.021,-1.588 6.541,-1.896 3.517,-0.31 6.547,1.076 8.443,2.606 1.949,0.265 9.213,2.56 10.065,3.116 0.853,0.556 3.254,1.639 5.111,0.675 1.858,-0.964 9.205,-7.732 18.543,-7.843 8.893,-0.106 12.053,3.383 11.258,4.221 -0.795,0.837 -5.658,1.976 -12.301,4.369 -6.645,2.393 -6.246,5.654 -7.801,5.988 -1.554,0.336 -4.664,1.008 -4.664,1.008 0,0 4.227,2.945 9.725,9.781 5.498,6.834 7.678,13.848 8.07,16.795 2.492,3.486 2.203,5.05 1.969,5.347 -0.188,0.239 -0.02,0.486 0.945,1.502 0.737,0.256 5.014,1.763 4.908,2.025 -0.113,0.283 -1.754,0.027 -1.629,0.497 0.085,0.315 0.178,0.567 0.174,0.698 0.065,0.053 0.127,0.106 0.19,0.164 0.521,0.488 1.963,1.199 1.656,1.517 -0.307,0.316 -2.262,-0.26 -2.514,-0.035 -0.254,0.223 0.09,2.402 -0.275,2.498 -0.365,0.099 0,0 -0.356,-0.454 -0.355,-0.453 -0.623,-1.163 -0.88,-1.252 -0.258,-0.087 -2.168,-1.379 -2.168,-1.379 0,0 1.255,1.779 1.425,2.125 0.172,0.346 2.538,3.944 2.375,4.221 -0.16,0.278 -0.476,-0.029 -2.605,-1.265 -2.129,-1.233 -9.766,-6.402 -9.971,-6.582 -0.205,-0.182 -2.754,-0.051 -3.396,-0.115 -0.643,-0.064 1.646,0.894 2.66,1.17 1.014,0.279 2.168,0.207 2.898,1.188 0.731,0.978 1.539,2.251 1.745,2.43 0.205,0.182 1.665,0.965 1.615,1.372 -0.049,0.404 -1.344,-0.348 -1.803,-0.303 -0.457,0.043 0.59,2.504 0.408,2.709 -0.18,0.203 0.901,1.326 0.979,1.619 0.078,0.291 0.672,0.76 0.584,1.018 -0.088,0.257 -0.813,-0.409 -1.11,-0.645 -0.299,-0.234 -1.564,-0.287 -2.076,-0.15 -0.512,0.134 -0.211,1.855 -0.211,1.855 0,0 0.643,1.238 0.559,1.809 -0.082,0.568 -0.891,-0.703 -1.301,-1.065 -0.408,-0.359 -2.682,-3.904 -2.988,-4.762 -0.307,-0.857 -3.672,-4.971 -3.989,-5.278 -1.705,0.062 -3.765,-1.504 -7.261,-4.644 -9.963,-4.786 -16.285,-16.491 -16.285,-16.491 0,0 -0.432,4.265 -1.797,5.019 -1.365,0.754 -2.824,3.805 -3.352,5.352 -0.527,1.55 -3.123,8.268 -3.095,10.219 0.027,1.948 -0.168,4.583 -1.231,3.536 -4.481,-3.896 -2.314,-16.058 -1.727,-19.738 0.588,-3.678 5.455,-11.861 5.455,-11.861 -1.822,-1.551 -3.134,-5.899 -3.63,-7.175 -0.497,-1.277 -0.301,-2.896 -4.116,-5.168 -3.814,-2.274 -4.746,-6.956 -4.824,-7.25 -0.078,-0.292 -2.656,-2.033 -3.269,-2.574 -0.614,-0.542 -2.493,-1.137 -1.674,-1.589 z"
         style="fill:#242b25;stroke:none" />
      <path
         id="path22"
         d="m 288.4,481.086 c -7.073,-1.093 -10.687,-8.74 -13.042,-16.324 6.767,0.029 10.068,-2.015 4.442,-3.051 -1.61,-0.297 -3.665,-0.959 -5.808,-1.769 -0.379,-1.434 -0.726,-2.812 -1.06,-4.079 -0.888,-3.373 -3.614,-7.523 -6.743,-11.502 1.146,-0.392 2.922,-0.955 5.844,-1.685 7.919,-1.98 12.183,-0.305 13.248,-0.762 1.067,-0.457 -0.609,-4.721 -8.832,-5.939 -6.668,-0.988 -14.036,0.427 -16.584,0.999 -3.099,-3.401 -5.638,-5.97 -6.09,-6.693 -1.19,-1.903 -2.974,-8.21 -9.281,-7.853 -6.306,0.357 -6.9,3.451 -7.377,3.926 0,0 -2.973,-0.237 -6.424,0.953 -3.451,1.189 -2.738,1.785 -1.904,1.785 0.832,0 7.138,0.356 7.734,1.189 0.594,0.832 1.665,3.212 3.211,4.284 1.548,1.07 0.24,3.688 0.121,5.116 -0.121,1.427 -0.239,12.969 3.093,20.108 3.331,7.139 8.805,14.04 8.805,14.04 0,0 -1.704,3.971 -1.23,4.803 0.477,0.832 -0.375,2.741 -0.97,2.741 -0.594,0 -4.106,-3.616 -3.988,-3.022 0.12,0.594 0.162,1.195 0.162,1.195 0,0 -1.827,-1.432 -2.541,-1.075 -0.714,0.356 1.58,1.855 1.342,2.33 -0.237,0.476 -2.295,0.047 -1.818,0.762 0.476,0.712 5.27,2.839 6.443,3.464 1.713,0.915 4.028,-3.464 4.503,-3.464 0.476,0 1.905,0 3.332,-1.427 0.845,0.437 1.792,0.768 2.737,1.784 1.192,1.279 2.053,1.945 4.79,3.85 0.787,0.547 3.181,1.861 3.181,1.861 0,0 1.309,1.428 0.952,1.904 -0.357,0.477 -2.379,1.071 -3.212,1.428 -0.833,0.357 1.666,0.594 1.666,0.594 0,0 -3.213,2.023 -3.213,2.5 0,0.476 2.499,-0.477 3.093,-0.596 0.595,-0.119 -0.356,1.072 -0.356,1.666 0,0.596 4.444,-2.184 5.83,-2.617 1.903,-0.596 0.833,-3.094 0.833,-3.094 0,0 0.49,0.102 1.428,-1.904 0.833,-1.785 0.119,-3.569 0.476,-3.688 0.357,-0.119 6.782,-0.834 9.756,-0.595 2.976,0.238 4.284,-2.024 3.451,-2.143 z"
         style="fill:#242b25;stroke:none" />
      <path
         id="path28"
         d="m 415.449,512.664 c -0.688,-0.316 -0.965,-0.498 -0.965,-0.9 0,-0.313 0.254,-0.621 0.825,-0.621 0.462,0 0.804,0.14 1.002,0.242 l 0.226,-0.885 c -0.265,-0.131 -0.673,-0.256 -1.205,-0.256 -1.214,0 -1.937,0.709 -1.937,1.631 0,0.731 0.527,1.256 1.373,1.622 0.621,0.27 0.892,0.511 0.892,0.912 0,0.417 -0.315,0.702 -0.914,0.702 -0.451,0 -0.92,-0.139 -1.213,-0.315 l -0.212,0.907 c 0.265,0.16 0.826,0.316 1.381,0.316 1.31,0 2.047,-0.718 2.047,-1.697 0,-0.739 -0.402,-1.257 -1.3,-1.658 z m 2.069,3.28 h 1.083 v -4.069 h -1.083 z m 0.534,-5.756 c -0.337,0 -0.579,0.24 -0.579,0.576 0,0.328 0.236,0.578 0.579,0.578 0.335,0 0.584,-0.229 0.584,-0.578 0,-0.336 -0.234,-0.576 -0.584,-0.576 z m 1.518,5.756 h 1.083 v -5.875 h -1.083 z m 4.24,-4.157 c -0.351,0 -0.795,0.153 -1.088,0.577 h -0.016 v -2.295 h -1.08 v 5.875 h 1.08 v -2.469 c 0,-0.608 0.418,-0.795 0.688,-0.795 0.467,0 0.628,0.4 0.628,0.92 v 2.344 h 1.081 v -2.433 c 0,-1.197 -0.568,-1.724 -1.293,-1.724 z m 3.957,0 c -1.104,0 -1.93,0.776 -1.93,2.141 0,1.323 0.788,2.096 1.886,2.096 0.906,0 1.899,-0.597 1.899,-2.147 0,-1.235 -0.716,-2.09 -1.855,-2.09 z m -0.029,3.44 c -0.526,0 -0.804,-0.598 -0.804,-1.321 0,-0.622 0.211,-1.324 0.809,-1.324 0.558,0 0.783,0.682 0.783,1.317 0,0.723 -0.278,1.328 -0.788,1.328 z m 6.103,-3.352 h -1.083 v 2.506 c 0,0.461 -0.315,0.76 -0.664,0.76 -0.446,0 -0.62,-0.387 -0.62,-1.001 v -2.265 h -1.083 v 2.425 c 0,1.221 0.529,1.724 1.3,1.724 0.63,0 1.001,-0.357 1.169,-0.622 h 0.023 l 0.052,0.542 h 0.943 c -0.017,-0.343 -0.037,-0.759 -0.037,-1.242 z m 2.624,-0.088 c -1.191,0 -1.862,1.008 -1.862,2.178 0,1.262 0.715,2.054 1.973,2.054 0.503,0 0.98,-0.089 1.315,-0.236 l -0.155,-0.744 c -0.276,0.094 -0.59,0.166 -0.993,0.166 -0.584,0 -1.081,-0.275 -1.111,-0.971 h 2.433 c 0.023,-0.117 0.03,-0.269 0.03,-0.429 0,-1.317 -0.643,-2.018 -1.63,-2.018 z m -0.833,1.696 c 0.03,-0.403 0.249,-0.944 0.768,-0.944 0.535,0 0.703,0.52 0.695,0.944 z m 4.461,-2.668 -1.068,0.314 v 0.746 h -0.533 v 0.797 h 0.533 v 1.877 c 0,0.451 0.021,1.47 1.191,1.47 0.314,0 0.578,-0.037 0.724,-0.098 l -0.014,-0.825 c -0.112,0.022 -0.198,0.037 -0.352,0.037 -0.33,0 -0.481,-0.203 -0.481,-0.693 v -1.768 h 0.897 v -0.797 h -0.897 z m 2.814,0 -1.067,0.314 v 0.746 h -0.533 v 0.797 h 0.533 v 1.877 c 0,0.451 0.02,1.47 1.19,1.47 0.316,0 0.579,-0.037 0.725,-0.098 l -0.015,-0.825 c -0.11,0.022 -0.196,0.037 -0.351,0.037 -0.329,0 -0.482,-0.203 -0.482,-0.693 v -1.768 h 0.898 v -0.797 h -0.898 z m 3.217,0.972 c -1.193,0 -1.863,1.008 -1.863,2.178 0,1.262 0.716,2.054 1.97,2.054 0.504,0 0.981,-0.089 1.318,-0.236 l -0.153,-0.744 c -0.28,0.094 -0.594,0.166 -0.996,0.166 -0.584,0 -1.081,-0.275 -1.109,-0.971 h 2.431 c 0.024,-0.117 0.03,-0.269 0.03,-0.429 0,-1.317 -0.643,-2.018 -1.628,-2.018 z m -0.833,1.696 c 0.028,-0.403 0.249,-0.944 0.766,-0.944 0.534,0 0.702,0.52 0.694,0.944 z m 6.439,-3.172 c -0.527,0 -1.023,0.051 -1.425,0.117 v 5.502 c 0.314,0.044 0.717,0.065 1.213,0.065 0.985,0 1.783,-0.249 2.286,-0.739 0.49,-0.473 0.804,-1.211 0.804,-2.228 v -0.005 c 0,-1.244 -0.496,-2.712 -2.878,-2.712 z m -0.03,5.006 c -0.197,0 -0.401,-0.008 -0.549,-0.031 v -4.243 c 0.148,-0.031 0.367,-0.059 0.659,-0.059 1.208,0 1.908,0.7 1.908,2.059 0,1.541 -0.76,2.281 -2.018,2.274 z m 5.301,-3.487 c -1.14,0 -1.812,0.956 -1.812,2.156 0,1.228 0.701,2.038 1.914,2.038 0.549,0 0.994,-0.108 1.28,-0.241 l -0.141,-0.598 c -0.262,0.11 -0.569,0.19 -1.015,0.19 -0.635,0 -1.196,-0.344 -1.219,-1.25 h 2.557 c 0.013,-0.103 0.022,-0.219 0.022,-0.358 0,-0.993 -0.452,-1.937 -1.586,-1.937 z m -0.986,1.689 c 0.044,-0.468 0.306,-1.081 0.927,-1.081 0.65,0 0.847,0.599 0.841,1.081 z m 4.716,0.051 c -0.491,-0.212 -0.674,-0.351 -0.674,-0.63 0,-0.268 0.207,-0.488 0.586,-0.488 0.328,0 0.606,0.124 0.766,0.228 l 0.191,-0.615 c -0.219,-0.125 -0.562,-0.235 -0.957,-0.235 -0.848,0 -1.396,0.534 -1.396,1.207 0,0.467 0.314,0.869 1.029,1.155 0.484,0.204 0.651,0.371 0.651,0.677 0,0.309 -0.219,0.528 -0.672,0.528 -0.345,0 -0.717,-0.146 -0.921,-0.27 l -0.188,0.627 c 0.269,0.162 0.67,0.27 1.094,0.27 0.913,0 1.507,-0.461 1.507,-1.234 0,-0.585 -0.35,-0.951 -1.016,-1.22 z m 1.84,2.374 h 0.849 v -4.033 h -0.849 z m 0.433,-5.633 c -0.293,0 -0.498,0.214 -0.498,0.496 0,0.271 0.198,0.49 0.491,0.49 0.307,0 0.496,-0.219 0.496,-0.49 0,-0.282 -0.196,-0.496 -0.489,-0.496 z m 4.079,2.148 h -0.016 c -0.168,-0.32 -0.505,-0.629 -1.102,-0.629 -0.878,0 -1.703,0.76 -1.703,2.127 0,1.125 0.651,1.964 1.6,1.964 0.518,0 0.912,-0.247 1.118,-0.589 h 0.015 v 0.387 c 0,0.913 -0.47,1.278 -1.126,1.278 -0.453,0 -0.84,-0.139 -1.089,-0.285 l -0.19,0.656 c 0.314,0.19 0.805,0.294 1.272,0.294 1.908,0 1.972,-1.483 1.972,-2.287 v -2.295 c 0,-0.541 0.015,-0.877 0.038,-1.162 h -0.754 z m -0.096,1.805 c 0,0.673 -0.439,1.008 -0.878,1.008 -0.627,0 -0.986,-0.563 -0.986,-1.352 0,-0.861 0.411,-1.416 0.995,-1.416 0.519,0 0.869,0.436 0.869,0.971 z m 3.925,-2.434 c -0.607,0 -1.029,0.344 -1.219,0.688 h -0.022 l -0.045,-0.6 h -0.737 c 0.015,0.344 0.029,0.688 0.029,1.133 v 2.893 h 0.849 v -2.425 c 0,-0.644 0.446,-0.988 0.861,-0.988 0.577,0 0.766,0.483 0.766,1.052 v 2.361 h 0.848 v -2.461 c 0,-1.243 -0.701,-1.653 -1.33,-1.653 z m 5.822,-2.598 h -0.337 v -0.564 c 0.196,-0.043 0.323,-0.105 0.323,-0.178 0,-0.113 -0.315,-0.207 -0.722,-0.223 -0.005,-0.173 -0.06,-0.308 -0.133,-0.308 -0.071,0 -0.129,0.135 -0.132,0.308 -0.41,0.016 -0.723,0.11 -0.723,0.223 0,0.073 0.128,0.135 0.323,0.178 v 0.564 h -0.337 l -0.228,6.725 h 2.195 z m -1.661,1.646 h 1.604 l 0.033,1.169 h -1.677 z m -0.075,2.247 h 1.742 l 0.032,1.172 h -1.814 z m -66.4,0.631 c -0.064,0.15 -0.159,0.275 -0.287,0.373 -0.186,0.15 -0.424,0.227 -0.713,0.227 -0.246,0 -0.468,-0.059 -0.662,-0.175 -0.229,-0.136 -0.393,-0.331 -0.492,-0.585 -0.093,-0.247 -0.14,-0.506 -0.14,-0.782 0,-0.552 0.149,-0.97 0.449,-1.253 0.219,-0.208 0.492,-0.311 0.82,-0.311 0.515,0 0.868,0.273 1.062,0.817 l 0.639,-0.182 c -0.14,-0.362 -0.339,-0.643 -0.59,-0.839 -0.305,-0.235 -0.684,-0.353 -1.136,-0.353 -0.337,0 -0.638,0.069 -0.902,0.202 -0.289,0.148 -0.521,0.366 -0.694,0.654 -0.216,0.361 -0.324,0.787 -0.324,1.281 0,0.35 0.062,0.678 0.186,0.988 0.087,0.219 0.217,0.416 0.388,0.588 0.349,0.346 0.81,0.52 1.378,0.52 0.629,0 1.11,-0.215 1.442,-0.649 0.111,-0.142 0.211,-0.335 0.304,-0.579 l -0.654,-0.157 c -0.028,0.094 -0.054,0.164 -0.074,0.215 z m -1.057,-5.123 c -2.244,0.001 -4.062,1.818 -4.063,4.062 10e-4,2.243 1.819,4.06 4.063,4.06 2.242,0 4.061,-1.817 4.061,-4.06 0,-2.244 -1.819,-4.061 -4.061,-4.062 z m 0,7.515 c -1.909,-0.005 -3.451,-1.548 -3.453,-3.453 0.002,-1.908 1.544,-3.449 3.453,-3.453 1.906,0.004 3.447,1.545 3.451,3.453 -0.004,1.905 -1.545,3.448 -3.451,3.453 z"
         style="fill:#36312c;stroke:none" />
    </g>
  </g>
  <g
     transform="translate(0,-815.35422)"
     id="layer2">
    <path
       id="path24"
       d="m 1.4691862,819.54239 c 1.221,-0.437 3.839,-0.524 3.839,-0.524 0.438,-1.047 1.745,-3.228 5.2359998,-3.316 3.492,-0.087 4.537,1.31 5.585,1.57 0,0 6.607,2.504 8.291,2.969 2.531,0.697 7.941,-0.699 14.398,-0.263 0.581,0.039 1.202,0.109 1.854,0.199 1.526,-0.493 2.988,-1.055 4.168,-1.682 4.101,-2.182 5.409,-3.665 6.196,-2.967 0.621,0.552 1.24,2.577 -2.495,6.031 4.869,0.825 9.95,1.31 13.49,-0.533 4.188,-2.181 7.766,-6.196 8.726,-5.586 0.959,0.612 -0.523,5.586 -2.443,7.768 -1.92,2.18 -0.175,2.18 0.262,2.355 0.459,0.184 0.785,2.618 4.275,0.174 0.861,-0.601 3.142,-1.308 3.142,-1.308 0,0 1.309,-0.262 1.921,-0.262 0.611,0 -0.35,1.135 -0.35,1.135 0,0 0.61,-0.088 1.483,0 0.873,0.086 -0.348,0.873 -0.348,0.873 0,0 1.046,0.173 1.919,0.347 0.873,0.176 -0.785,1.135 -1.396,1.485 -0.611,0.348 -3.49,1.134 -5.498,1.484 -2.008,0.348 -7.941,1.57 -7.941,1.57 0,0 0,0 -0.698,0.959 -0.698,0.961 -4.275,2.618 -4.275,2.618 0,0 -5.411,7.505 -23.388,7.245 -17.977,-0.263 -23.998,-12.131 -25.132,-14.226 -1.134,-2.094 -2.006,-2.355 -3.6659998,-3.141 -1.658,-0.785 -3.403,-3.142 -3.751,-3.578 -0.35,-0.436 -2.008,-0.611 -3.143,-0.523 -1.13299998,0.087 -1.39599998,0.872 -1.65699998,0.611 -0.262,-0.263 0.174,-1.048 1.39599998,-1.484 z"
       style="display:inline;fill:#242b25;stroke:none" />
  </g>
</svg>
