<?xml version="1.0" encoding="UTF-8" standalone="no"?>
<svg
   xmlns:dc="http://purl.org/dc/elements/1.1/"
   xmlns:cc="http://creativecommons.org/ns#"
   xmlns:rdf="http://www.w3.org/1999/02/22-rdf-syntax-ns#"
   xmlns:svg="http://www.w3.org/2000/svg"
   xmlns="http://www.w3.org/2000/svg"
   style="fill-rule:evenodd"
   id="svg78"
   version="1.1"
   viewBox="0 0 51.626137 67.891097"
   height="67.891098pt"
   width="51.626137pt">
  <metadata
     id="metadata84">
    <rdf:RDF>
      <cc:Work
         rdf:about="">
        <dc:format>image/svg+xml</dc:format>
        <dc:type
           rdf:resource="http://purl.org/dc/dcmitype/StillImage" />
        <dc:title></dc:title>
      </cc:Work>
    </rdf:RDF>
  </metadata>
  <defs
     id="defs82" />
  <g
     transform="translate(-64.846231,-424.4509)"
     style="display:inline"
     id="layer1">
    <path
       style="fill:#000000;stroke:none"
       d="m 66.2891,432.685 c 1.1621,-1.057 5.8086,-2.851 6.3359,-3.168 0.5273,-0.318 0.6328,-3.802 6.123,-4.858 5.4922,-1.055 8.5528,2.218 9.1875,2.745 0,0 2.4278,1.268 6.4415,2.217 4.0117,0.951 10.875,3.696 16.367,15.311 3.018,6.386 3.133,13.951 2.641,19.678 0.062,1.333 0.146,2.437 0.314,3.13 0.74,3.062 3.485,3.908 1.901,4.436 -1.162,0.388 -2.18,-0.093 -3.057,-1.102 -0.199,1.212 -0.342,2.014 -0.322,2.263 0.105,1.268 1.373,7.603 1.689,8.659 0.317,1.055 2.852,1.899 2.535,2.428 -0.316,0.527 -1.689,0.422 -2.535,0 -0.105,1.16 -0.949,4.539 -2.217,5.066 -1.267,0.53 -3.8,1.27 -4.857,1.584 -1.055,0.319 -1.268,1.268 -1.69,1.268 -0.421,0 0.317,-1.795 0.317,-1.795 0,0 -1.901,0.846 -2.533,1.057 -0.635,0.211 0.843,-2.534 1.689,-2.957 0.422,-0.952 2.85,-1.266 3.695,-1.479 0.844,-0.209 0.952,-1.898 0.53,-2.744 -1.586,0.105 -5.176,-0.738 -6.442,-1.162 -1.267,-0.422 -3.3805,-1.057 -3.1676,-1.479 -0.4239,1.057 -1.9004,1.692 -1.9004,1.692 l -1.1621,2.427 c 0,0 0,0.739 -0.5274,1.479 -0.5293,0.738 -3.5898,1.582 -4.4355,1.582 -0.8457,0 -1.584,0.951 -2.5352,1.479 -0.9492,0.529 -0.4218,-0.422 0.1055,-1.372 -0.3164,-0.316 -2.6387,0.633 -3.2734,0.95 -0.6329,0.316 0.3183,-1.901 1.2675,-2.852 0.7403,-1.478 3.3789,-1.689 3.9082,-1.689 0.5274,0 0.7383,-0.422 1.0547,-0.739 0.3184,-0.316 0.6328,-1.478 0.7403,-2.322 0.1054,-0.846 -0.6348,-2.746 -1.1621,-4.33 -9.504,-21.75 -11.2989,-37.801 -11.2989,-38.646 0,-0.844 -0.7383,-2.639 -2.3222,-4.012 -1.584,-1.373 -4.9629,-2.006 -4.9629,-2.006 0,0 -3.5196,0.492 -4.7871,0.703 -1.2676,0.212 -2.0684,1.135 -2.8164,0.986 -0.7032,-0.142 0,-1.373 1.1621,-2.428 z"
       id="path16" />
  </g>
</svg>
